<?xml version="1.0" encoding="UTF-8"?>
<!DOCTYPE svg PUBLIC "-//W3C//DTD SVG 1.1//EN" "http://www.w3.org/Graphics/SVG/1.1/DTD/svg11.dtd">
<svg version="1.1" xmlns="http://www.w3.org/2000/svg" xmlns:xlink="http://www.w3.org/1999/xlink" x="0" y="0" width="146" height="818" viewBox="0, 0, 146, 818">
  <g id="Layer_1">
    <path d="M73,145 C33.235,145 1,112.765 1,73 C1,33.235 33.235,1 73,1 C112.765,1 145,33.235 145,73 C145,112.765 112.765,145 73,145 z" fill="#000000" fill-opacity="0.24"/>
    <path d="M73,313 C33.235,313 1,280.764 1,241 C1,201.236 33.235,169 73,169 C112.765,169 145,201.236 145,241 C145,280.764 112.765,313 73,313 z" fill="#000000" fill-opacity="0.244"/>
    <path d="M73,481 C33.235,481 1,448.764 1,409 C1,369.236 33.235,337 73,337 C112.765,337 145,369.236 145,409 C145,448.764 112.765,481 73,481 z" fill="#000000" fill-opacity="0.243"/>
    <path d="M73,648 C33.235,648 1,615.765 1,576 C1,536.235 33.235,504 73,504 C112.765,504 145,536.235 145,576 C145,615.765 112.765,648 73,648 z" fill="#FFD201"/>
    <path d="M73,818 C33.235,818 1,785.765 1,746 C1,706.235 33.235,674 73,674 C112.765,674 145,706.235 145,746 C145,785.765 112.765,818 73,818 z" fill="#FFD200"/>
  </g>
</svg>
