<?xml version="1.0" encoding="UTF-8"?>
<!DOCTYPE svg PUBLIC "-//W3C//DTD SVG 1.1//EN" "http://www.w3.org/Graphics/SVG/1.1/DTD/svg11.dtd">
<svg version="1.1" xmlns="http://www.w3.org/2000/svg" xmlns:xlink="http://www.w3.org/1999/xlink" x="0" y="0" width="432" height="334.637" viewBox="0, 0, 216, 167.318">
  <g id="Layer_1">
    <path d="M8,74.344 L208,74.344 C212.418,74.344 216,77.925 216,82.344 L216,114.344 C216,118.762 212.418,122.344 208,122.344 L8,122.344 C3.582,122.344 0,118.762 0,114.344 L0,82.344 C0,77.925 3.582,74.344 8,74.344 z" fill="#482F00"/>
    <path d="M108,0 C149.395,0 176.616,9.074 192.164,24.621 C197.86,30.318 201.573,36.505 203.653,42.747 C204.4,44.986 204.885,47.09 205.16,49.012 C205.337,50.252 205.401,51.217 205.401,51.863 C205.401,55.356 202.569,58.188 199.076,58.188 L16.924,58.188 C13.431,58.188 10.599,55.356 10.599,51.863 C10.599,51.217 10.663,50.252 10.84,49.012 C11.115,47.09 11.6,44.986 12.346,42.747 C14.427,36.505 18.14,30.318 23.836,24.621 C39.384,9.074 66.605,0 108,0 z" fill="#F8DF99"/>
    <path d="M199.076,130.498 C202.569,130.498 205.401,132.922 205.401,135.913 L205.401,161.904 C205.401,164.894 202.569,167.318 199.076,167.318 L16.924,167.318 C13.431,167.318 10.599,164.894 10.599,161.904 L10.599,135.913 C10.599,132.922 13.431,130.498 16.924,130.498 L199.076,130.498 z" fill="#F8DF99"/>
    <path d="M203.955,64.666 C205.612,64.666 206.955,66.009 206.955,67.666 L206.955,71.273 C206.9,72.293 206.432,73.424 205.424,73.848 C205.082,74.184 205.339,73.954 204.555,74.41 L144.955,103.23 C143.345,104.008 141.34,103.943 139.808,103.061 L90.101,74.447 L89.845,74.273 L12.045,74.273 C10.389,74.273 9.045,72.93 9.045,71.273 L9.045,67.666 C9.045,66.009 10.389,64.666 12.045,64.666 L203.955,64.666 z" fill="#FFE100"/>
  </g>
</svg>
