<?xml version="1.0" encoding="UTF-8"?>
<!DOCTYPE svg PUBLIC "-//W3C//DTD SVG 1.1//EN" "http://www.w3.org/Graphics/SVG/1.1/DTD/svg11.dtd">
<svg version="1.1" xmlns="http://www.w3.org/2000/svg" xmlns:xlink="http://www.w3.org/1999/xlink" x="0" y="0" width="72" height="48" viewBox="0, 0, 288, 192">
  <g id="Layer_1">
    <path d="M8,0 L280,0 C284.418,0 288,3.582 288,8 L288,28 C288,32.418 284.418,36 280,36 L8,36 C3.582,36 0,32.418 0,28 L0,8 C0,3.582 3.582,0 8,0 z" fill="#F6D7A0"/>
    <path d="M8,156 L280,156 C284.418,156 288,159.582 288,164 L288,184 C288,188.418 284.418,192 280,192 L8,192 C3.582,192 0,188.418 0,184 L0,164 C0,159.582 3.582,156 8,156 z" fill="#F6D7A0"/>
    <path d="M8,84 L280,84 C284.418,84 288,88.776 288,94.667 L288,121.333 C288,127.224 284.418,132 280,132 L8,132 C3.582,132 0,127.224 0,121.333 L0,94.667 C0,88.776 3.582,84 8,84 z" fill="#6E4329"/>
    <path d="M18,72 L270,72 C273.314,72 276,74.686 276,78 L276,78 C276,81.314 273.314,84 270,84 L18,84 C14.686,84 12,81.314 12,78 L12,78 C12,74.686 14.686,72 18,72 z" fill="#94E080"/>
    <path d="M6.545,84 L281.455,84 C285.069,84 288,86.686 288,90 L288,90 C288,93.314 285.069,96 281.455,96 L6.545,96 C2.93,96 -0,93.314 -0,90 L-0,90 C-0,86.686 2.93,84 6.545,84 z" fill="#FFF100"/>
    <path d="M29.455,60 L258.545,60 C261.558,60 264,62.686 264,66 L264,66 C264,69.314 261.558,72 258.545,72 L29.455,72 C26.442,72 24,69.314 24,66 L24,66 C24,62.686 26.442,60 29.455,60 z" fill="#FF4040"/>
  </g>
</svg>
