<?xml version="1.0" encoding="UTF-8"?>
<!DOCTYPE svg PUBLIC "-//W3C//DTD SVG 1.1//EN" "http://www.w3.org/Graphics/SVG/1.1/DTD/svg11.dtd">
<svg version="1.1" xmlns="http://www.w3.org/2000/svg" xmlns:xlink="http://www.w3.org/1999/xlink" x="0" y="0" width="559.73" height="559.73" viewBox="0, 0, 559.73, 559.73">
  <defs>
    <linearGradient id="Gradient_1" gradientUnits="userSpaceOnUse" x1="81.971" y1="477.759" x2="477.759" y2="81.971">
      <stop offset="0" stop-color="#12E78E"/>
      <stop offset="1" stop-color="#87FF4F"/>
    </linearGradient>
  </defs>
  <g id="Layer_1">
    <path d="M279.865,559.73 C125.3,559.73 0,434.43 0,279.865 C0,125.3 125.3,0 279.865,0 C434.43,0 559.73,125.3 559.73,279.865 C559.73,434.43 434.43,559.73 279.865,559.73 z" fill="url(#Gradient_1)"/>
  </g>
  <g id="Layer_2">
    <path d="M279.865,330.38 C220.223,330.38 171.874,282.031 171.874,222.39 C171.874,162.748 220.223,114.399 279.865,114.399 C339.506,114.399 387.855,162.748 387.855,222.39 C387.855,282.031 339.506,330.38 279.865,330.38 z" fill="#FFFFFF"/>
    <path d="M220.215,326.148 C224.916,327.108 222.963,326.46 226.178,327.748 C226.241,327.781 226.501,327.912 226.95,328.127 C227.787,328.529 228.794,328.988 229.964,329.491 C233.401,330.969 237.378,332.462 241.821,333.864 C254.555,337.88 268.305,340.289 282.467,340.289 C300.474,340.289 317.869,336.37 334.272,327.748 C342.687,323.325 352.966,328.429 354.519,337.802 L369.654,429.122 C371.061,437.61 364.509,445.331 355.899,445.331 L203.832,445.33 C195.178,445.331 188.615,437.536 190.094,429.017 L205.949,337.696 C207.512,330.703 211.423,327.795 218.101,326.228 L220.215,326.148 z" fill="#FFFFFF"/>
  </g>
</svg>
