<?xml version="1.0" encoding="UTF-8"?>
<!DOCTYPE svg PUBLIC "-//W3C//DTD SVG 1.1//EN" "http://www.w3.org/Graphics/SVG/1.1/DTD/svg11.dtd">
<svg version="1.1" xmlns="http://www.w3.org/2000/svg" xmlns:xlink="http://www.w3.org/1999/xlink" x="0" y="0" width="89.557" height="89.557" viewBox="0, 0, 559.73, 559.73">
  <g id="Layer_2"/>
  <g id="Layer_1">
    <path d="M279.865,-0 C434.43,-0 559.73,125.3 559.73,279.865 C559.73,434.43 434.43,559.73 279.865,559.73 C125.3,559.73 0,434.43 0,279.865 C0,125.3 125.3,-0 279.865,-0 z M365.412,108 L160.27,108 L160.27,440.135 L365.412,440.135 L365.412,329.423 L433.793,274.068 L365.412,218.712 L365.412,108 z" fill="#1B3C35"/>
  </g>
  <g id="Layer_3">
    <path d="M336.513,127.537 C342.133,127.537 346.689,132.093 346.689,137.713 L346.689,247.122 L326.338,247.122 L326.338,147.889 L200.159,147.889 L200.159,401.06 L326.338,401.06 L326.338,301.827 L346.689,301.827 L346.689,411.236 C346.689,416.856 342.133,421.412 336.513,421.412 L189.983,421.412 C184.363,421.412 179.808,416.856 179.808,411.236 L179.808,137.713 C179.808,132.093 184.363,127.537 189.983,127.537 L336.513,127.537 z" fill="#1B3C35"/>
    <path d="M365.102,241.573 C367.43,241.747 366.495,241.403 368.017,242.238 L407.092,271.544 C409.046,273.009 409.046,275.94 407.092,277.405 L368.017,306.711 C365.603,308.522 362.156,306.799 362.156,303.781 L362.156,287.907 L268.133,287.907 C266.11,287.907 264.469,286.266 264.469,284.243 L264.469,264.706 C264.469,262.683 266.11,261.043 268.133,261.043 L362.156,261.043 L362.156,245.169 C362.29,242.871 363.195,242.527 365.102,241.573 z" fill="#1B3C35"/>
  </g>
</svg>
