<?xml version="1.0" encoding="UTF-8"?>
<!DOCTYPE svg PUBLIC "-//W3C//DTD SVG 1.1//EN" "http://www.w3.org/Graphics/SVG/1.1/DTD/svg11.dtd">
<svg version="1.1" xmlns="http://www.w3.org/2000/svg" xmlns:xlink="http://www.w3.org/1999/xlink" x="0" y="0" width="89.557" height="89.557" viewBox="0, 0, 559.73, 559.73">
  <g id="Layer_1">
    <path d="M279.865,-0 C434.43,-0 559.73,125.3 559.73,279.865 C559.73,434.43 434.43,559.73 279.865,559.73 C125.3,559.73 -0,434.43 -0,279.865 C-0,125.3 125.3,-0 279.865,-0 z M397.898,106.932 L161.832,106.932 C158.8,106.932 156.342,109.39 156.342,112.422 L156.342,447.307 C156.342,450.339 158.8,452.797 161.832,452.797 L397.898,452.797 C400.93,452.797 403.388,450.339 403.388,447.307 L403.388,112.422 C403.388,109.39 400.93,106.932 397.898,106.932 z" fill="#1B3D35"/>
  </g>
  <g id="Layer_2">
    <path d="M284.865,162.938 L284.865,193.018 L313.091,174.201 L318.638,182.521 L288.879,202.361 L318.638,222.201 L313.091,230.521 L284.865,211.704 L284.865,241.784 L274.865,241.784 L274.865,211.704 L246.638,230.521 L241.091,222.201 L270.851,202.361 L241.091,182.521 L246.638,174.201 L274.865,193.019 L274.865,162.938 L284.865,162.938 z" fill="#1C3D36"/>
    <path d="M204.413,312.252 C197.12,312.252 191.207,306.34 191.207,299.046 C191.207,291.753 197.12,285.84 204.413,285.84 C211.707,285.84 217.62,291.753 217.62,299.046 C217.62,306.34 211.707,312.252 204.413,312.252 z" fill="#1C3D36"/>
    <path d="M204.413,362.325 C197.12,362.325 191.207,356.412 191.207,349.118 C191.207,341.825 197.12,335.912 204.413,335.912 C211.707,335.912 217.62,341.825 217.62,349.118 C217.62,356.412 211.707,362.325 204.413,362.325 z" fill="#1C3D36"/>
    <path d="M204.413,412.046 C197.12,412.046 191.207,406.133 191.207,398.839 C191.207,391.546 197.12,385.633 204.413,385.633 C211.707,385.633 217.62,391.546 217.62,398.839 C217.62,406.133 211.707,412.046 204.413,412.046 z" fill="#1C3D36"/>
    <path d="M229.046,299.546 L323.72,299.546" fill-opacity="0" stroke="#1C3D36" stroke-width="6"/>
    <path d="M229.046,349.618 L342.065,349.618" fill-opacity="0" stroke="#1C3D36" stroke-width="6"/>
    <path d="M229.047,399.339 L359.722,399.339" fill-opacity="0" stroke="#1C3D36" stroke-width="6"/>
  </g>
</svg>
