<?xml version="1.0" encoding="UTF-8"?>
<!DOCTYPE svg PUBLIC "-//W3C//DTD SVG 1.1//EN" "http://www.w3.org/Graphics/SVG/1.1/DTD/svg11.dtd">
<svg version="1.1" xmlns="http://www.w3.org/2000/svg" xmlns:xlink="http://www.w3.org/1999/xlink" x="0" y="0" width="89.557" height="89.557" viewBox="0, 0, 559.73, 559.73">
  <g id="Layer_1">
    <path d="M279.865,0 C434.43,0 559.73,125.3 559.73,279.865 C559.73,434.43 434.43,559.73 279.865,559.73 C125.3,559.73 0,434.43 0,279.865 C0,125.3 125.3,0 279.865,0 z M244.045,78.146 L240.056,78.215 C235.76,78.596 231.44,78.769 227.167,79.356 C202.902,82.693 179.812,92.772 160.814,108.204 C103.211,155.012 94.46,239.654 141.268,297.258 C187.101,350.838 262.301,363.161 321.391,323.299 L338.959,344.919 C335.258,348.601 334.474,353.749 337.71,358.063 L414.962,453.132 C418.247,457.175 424.187,457.789 428.229,454.504 L445.076,440.814 C449.119,437.53 449.733,431.59 446.448,427.547 L369.196,332.479 C365.543,328.807 360.447,327.76 356.073,331.012 L338.505,309.392 C387.581,260.512 393.985,182.357 349.867,127.751 C323.223,96.691 285.204,78.111 244.045,78.146 z M240.926,99.419 C250.565,99.492 253.034,99.165 262.594,100.618 C290.368,104.838 315.61,119.448 333.399,141.133 C372.816,189.641 365.447,260.918 316.939,300.336 C268.431,339.753 197.153,332.384 157.736,283.875 C118.319,235.367 125.688,164.09 174.196,124.673 C193.928,109.45 215.88,100.551 240.926,99.419 z M271.372,116.439 L271.372,116.439 C269.613,116.778 268.843,116.783 268.6,118.858 L268.6,308.777 C268.6,310.121 269.69,311.211 271.034,311.211 L281.006,311.211 C282.347,311.211 283.436,310.126 283.44,308.785 L283.731,225.587 C284.274,224.455 284.024,225.003 284.485,223.947 C285.234,222.178 285.977,220.056 286.666,217.578 C289.272,208.214 290.445,196.442 289.409,182.196 C288.045,163.429 282.929,142.039 273.295,117.954 C272.525,116.712 273.083,117.308 271.372,116.439 z M230.325,118.297 L229.561,118.312 C228.629,119.118 228.867,118.653 228.632,119.577 L226.09,182.635 L219.342,182.635 L216.829,119.577 C216.722,117.787 214.088,117.778 213.969,119.568 L209.778,182.635 L205.015,182.635 L201.742,119.763 C201.647,117.933 198.936,117.962 198.879,119.794 L196.772,187.58 L196.794,187.879 C196.904,188.486 197.159,189.497 197.605,190.781 C198.344,192.909 199.367,195.035 200.724,197.028 C204.752,202.317 210.168,206.09 217.076,206.173 L215.811,307.987 C215.811,308.779 216.452,309.42 217.243,309.42 L228.217,309.42 C229.009,309.42 229.65,308.779 229.65,307.987 L228.385,206.177 C229.487,206.088 228.839,206.149 230.325,205.969 C232.819,205.617 235.317,204.983 237.663,203.989 C244.502,201.094 248.69,195.774 248.69,187.624 C248.69,181.445 248.453,170.619 248.039,156.456 C247.952,153.47 247.857,150.375 247.757,147.191 C247.553,140.706 247.335,134.16 247.116,127.883 C247.04,125.686 246.969,123.68 246.905,121.905 C246.883,121.284 246.87,120.918 246.846,120.266 C246.829,119.791 246.829,119.791 246.825,119.692 C246.758,117.86 244.046,117.848 243.962,119.679 L241.072,182.635 L234.706,182.635 L231.493,119.59 C231.117,118.548 231.449,119.025 230.325,118.297 z" fill="#1B3D35"/>
  </g>
</svg>
